<svg width="20" height="21" viewBox="0 0 20 21" fill="none" xmlns="http://www.w3.org/2000/svg">
<rect width="20" height="21" fill="#F5F5F5"/>
<g clip-path="url(#clip0_0_1)">
<rect width="1440" height="1024" transform="translate(-519 -461)" fill="white"/>
<rect x="-567" y="-549" width="1508" height="800" fill="#003585"/>
<rect x="-120.5" y="-26.5" width="143" height="49" rx="24.5" stroke="#A7F65C"/>
<rect x="-519" y="-461" width="1440" height="1024" fill="url(#paint0_linear_0_1)"/>
<g filter="url(#filter0_d_0_1)">
<rect x="-51" y="-195" width="504" height="470" rx="5" fill="white"/>
<rect x="-14.5" y="-13.3782" width="431" height="47" rx="4.5" fill="white"/>
<g clip-path="url(#clip1_0_1)">
<path d="M15.8333 9.28846H4.16667C3.24619 9.28846 2.5 10.0347 2.5 10.9551V16.7885C2.5 17.7089 3.24619 18.4551 4.16667 18.4551H15.8333C16.7538 18.4551 17.5 17.7089 17.5 16.7885V10.9551C17.5 10.0347 16.7538 9.28846 15.8333 9.28846Z" stroke="#AFADB5" stroke-width="2" stroke-linecap="round" stroke-linejoin="round"/>
<path d="M5.83325 9.28846V5.95513C5.83222 4.92183 6.21515 3.92502 6.90773 3.15818C7.60031 2.39135 8.55311 1.90921 9.58117 1.80537C10.6092 1.70152 11.6392 1.98338 12.4711 2.59622C13.3031 3.20906 13.8776 4.10917 14.0833 5.12179" stroke="#AFADB5" stroke-width="2" stroke-linecap="round" stroke-linejoin="round"/>
</g>
<rect x="-14.5" y="-13.3782" width="431" height="47" rx="4.5" stroke="#D9D9D9"/>
</g>
</g>
<defs>
<filter id="filter0_d_0_1" x="-51" y="-195" width="513" height="479" filterUnits="userSpaceOnUse" color-interpolation-filters="sRGB">
<feFlood flood-opacity="0" result="BackgroundImageFix"/>
<feColorMatrix in="SourceAlpha" type="matrix" values="0 0 0 0 0 0 0 0 0 0 0 0 0 0 0 0 0 0 127 0" result="hardAlpha"/>
<feOffset dx="5" dy="5"/>
<feGaussianBlur stdDeviation="2"/>
<feComposite in2="hardAlpha" operator="out"/>
<feColorMatrix type="matrix" values="0 0 0 0 0 0 0 0 0 0.0719381 0 0 0 0 0.179167 0 0 0 0.78 0"/>
<feBlend mode="normal" in2="BackgroundImageFix" result="effect1_dropShadow_0_1"/>
<feBlend mode="normal" in="SourceGraphic" in2="effect1_dropShadow_0_1" result="shape"/>
</filter>
<linearGradient id="paint0_linear_0_1" x1="305" y1="701" x2="-375" y2="-575" gradientUnits="userSpaceOnUse">
<stop stop-color="#003585"/>
<stop offset="1" stop-color="#003585" stop-opacity="0.78"/>
</linearGradient>
<clipPath id="clip0_0_1">
<rect width="1440" height="1024" fill="white" transform="translate(-519 -461)"/>
</clipPath>
<clipPath id="clip1_0_1">
<rect width="20" height="20" fill="white" transform="translate(0 0.121796)"/>
</clipPath>
</defs>
</svg>
