<svg id="logosandtypes_com" data-name="logosandtypes com" xmlns="http://www.w3.org/2000/svg" viewBox="0 0 150 150"><defs><style>.cls-1{fill:none;}.cls-2{fill:#c9a43b;}.cls-2,.cls-3{fill-rule:evenodd;}.cls-3{fill:#efc34c;}</style></defs><path class="cls-1" d="M0,0H150V150H0Z"/><g id="Calque_2" data-name="Calque 2"><g id="Calque_1-2" data-name="Calque 1-2"><path class="cls-2" d="M133.44,40.79,114,52,75.21,29.58,35,52.76l-18-12L75.21,7.16Z"/><path class="cls-2" d="M75.21,52c4.86,2.8,17.35,10.64,22.21,13.44l-22.21,9L55.79,63.2l.05,0Z"/></g></g><path class="cls-3" d="M133.44,40.78V108L75.22,141.65,17,108V40.78L36.38,52V96.83l38.83,22.41L114,96.83,94.62,85.62,75.21,96.83,55.82,85.64l0,0C80.12,71.57,109.11,54.84,133.44,40.78Z"/></svg>