<svg width="20" height="21" viewBox="0 0 20 21" fill="none" xmlns="http://www.w3.org/2000/svg">
<path d="M13.0917 10.7135C13.9087 10.0707 14.505 9.18923 14.7977 8.19175C15.0904 7.19426 15.0649 6.13035 14.7248 5.14802C14.3847 4.16569 13.7469 3.31379 12.9001 2.71084C12.0532 2.10789 11.0395 1.78388 10 1.78388C8.96045 1.78388 7.94676 2.10789 7.09994 2.71084C6.25312 3.31379 5.61528 4.16569 5.27517 5.14802C4.93506 6.13035 4.90959 7.19426 5.2023 8.19175C5.49501 9.18923 6.09134 10.0707 6.90833 10.7135C5.5084 11.2743 4.2869 12.2046 3.37407 13.4051C2.46125 14.6055 1.8913 16.0312 1.725 17.5301C1.71296 17.6396 1.72259 17.7503 1.75335 17.856C1.78411 17.9617 1.83539 18.0603 1.90426 18.1462C2.04335 18.3197 2.24565 18.4308 2.46666 18.4551C2.68768 18.4794 2.9093 18.415 3.08277 18.2759C3.25624 18.1368 3.36735 17.9345 3.39166 17.7135C3.57465 16.0845 4.3514 14.58 5.57351 13.4875C6.79562 12.3949 8.37741 11.791 10.0167 11.791C11.6559 11.791 13.2377 12.3949 14.4598 13.4875C15.6819 14.58 16.4587 16.0845 16.6417 17.7135C16.6643 17.9182 16.762 18.1073 16.9159 18.2443C17.0698 18.3813 17.269 18.4564 17.475 18.4551H17.5667C17.7851 18.43 17.9848 18.3195 18.1221 18.1478C18.2595 17.9761 18.3234 17.7571 18.3 17.5385C18.1329 16.0353 17.5599 14.606 16.6424 13.4036C15.7249 12.2013 14.4974 11.2714 13.0917 10.7135V10.7135ZM10 10.1218C9.34073 10.1218 8.69626 9.9263 8.1481 9.56003C7.59993 9.19376 7.17269 8.67316 6.9204 8.06407C6.66811 7.45499 6.6021 6.78477 6.73071 6.13816C6.85933 5.49156 7.1768 4.89761 7.64297 4.43144C8.10915 3.96526 8.70309 3.6478 9.3497 3.51918C9.9963 3.39056 10.6665 3.45657 11.2756 3.70886C11.8847 3.96116 12.4053 4.3884 12.7716 4.93656C13.1378 5.48473 13.3333 6.12919 13.3333 6.78846C13.3333 7.67252 12.9821 8.52036 12.357 9.14549C11.7319 9.77061 10.8841 10.1218 10 10.1218Z" fill="#AFADB5"/>
</svg>
