<svg width="20" height="19" viewBox="0 0 20 19" fill="none" xmlns="http://www.w3.org/2000/svg">
<path d="M5 14.5L6.41 13.09L3.83 10.5L14 10.5V8.5L3.83 8.5L6.41 5.92L5 4.5L2.38419e-06 9.5L5 14.5ZM18 16.5H10V18.5H18C19.1 18.5 20 17.6 20 16.5L20 2.5C20 1.4 19.1 0.5 18 0.5H10V2.5H18L18 16.5Z" fill="white"/>
<path d="M5 14.5L6.41 13.09L3.83 10.5L14 10.5V8.5L3.83 8.5L6.41 5.92L5 4.5L2.38419e-06 9.5L5 14.5ZM18 16.5H10V18.5H18C19.1 18.5 20 17.6 20 16.5L20 2.5C20 1.4 19.1 0.5 18 0.5H10V2.5H18L18 16.5Z" fill="#003585"/>
</svg>
